<svg width="46" height="46" viewBox="0 0 46 46" fill="none" xmlns="http://www.w3.org/2000/svg">
<path d="M38.7065 35.9975H7.29253C6.27144 35.9963 5.29252 35.5902 4.57053 34.8681C3.84855 34.1461 3.44248 33.1671 3.44141 32.146V12.745C3.44248 11.724 3.84855 10.745 4.57053 10.0229C5.29252 9.30089 6.27144 8.89472 7.29253 8.89355H38.7065C39.7276 8.89472 40.7065 9.30089 41.4285 10.0229C42.1505 10.745 42.5565 11.724 42.5576 12.745V32.146C42.5565 33.1671 42.1505 34.1461 41.4285 34.8681C40.7065 35.5902 39.7276 35.9963 38.7065 35.9975ZM7.29253 10.3656C6.66169 10.3662 6.05689 10.6172 5.61086 11.0633C5.16482 11.5094 4.91399 12.1142 4.91341 12.745V32.146C4.91399 32.7768 5.16482 33.3817 5.61086 33.8278C6.05689 34.2739 6.66169 34.5248 7.29253 34.5255H38.7065C39.3373 34.5248 39.9421 34.2739 40.3881 33.8278C40.8342 33.3817 41.085 32.7768 41.0856 32.146V12.745C41.085 12.1142 40.8342 11.5094 40.3881 11.0633C39.9421 10.6172 39.3373 10.3662 38.7065 10.3656H7.29253Z" fill="white"/>
<path d="M22.9992 26.7767C22.8198 26.7768 22.6466 26.7114 22.512 26.5927L4.77441 10.9351L5.74851 9.83105L22.9992 25.0604L40.2507 9.8329L41.2248 10.9369L23.4872 26.5946C23.3523 26.7129 23.1787 26.7777 22.9992 26.7767Z" fill="white"/>
<path d="M4.375 33.6861L16.2908 20.1087L17.3982 21.0802L5.48231 34.6572L4.375 33.6861ZM28.6398 21.0662L29.7468 20.0947L41.663 33.6714L40.556 34.6429L28.6398 21.0662Z" fill="white"/>
</svg>
