<svg width="20" height="20" viewBox="0 0 20 20" fill="none" xmlns="http://www.w3.org/2000/svg">
<g id="svg-gobbler (32) 1" clip-path="url(#clip0_620_22973)">
<g id="Group">
<path id="Vector" d="M10 0C4.48578 0 0 4.48578 0 10C0 15.5142 4.48578 20 10 20C15.5142 20 20 15.5142 20 10C20 4.48578 15.5142 0 10 0Z" fill="white"/>
<path id="Vector_2" d="M15.0692 7.88074L9.6525 13.2973C9.49 13.4598 9.27668 13.5416 9.06336 13.5416C8.85004 13.5416 8.63672 13.4598 8.47422 13.2973L5.76594 10.589C5.44 10.2632 5.44 9.73652 5.76594 9.41074C6.09172 9.08481 6.61828 9.08481 6.94422 9.41074L9.06336 11.5299L13.8909 6.70246C14.2167 6.37652 14.7433 6.37652 15.0692 6.70246C15.395 7.02824 15.395 7.5548 15.0692 7.88074Z" fill="#1E3756"/>
</g>
</g>
<defs>
<clipPath id="clip0_620_22973">
<rect width="20" height="20" fill="white"/>
</clipPath>
</defs>
</svg>
