<svg width="170" height="30" viewBox="0 0 170 30" fill="none" xmlns="http://www.w3.org/2000/svg">
<g id="Rating">
<path id="Star 3" d="M14.0489 2.92705C14.3483 2.00574 15.6517 2.00574 15.9511 2.92705L18.1432 9.67376C18.2771 10.0858 18.661 10.3647 19.0943 10.3647H26.1882C27.1569 10.3647 27.5597 11.6044 26.776 12.1738L21.0369 16.3435C20.6864 16.5981 20.5397 17.0495 20.6736 17.4615L22.8657 24.2082C23.1651 25.1295 22.1106 25.8956 21.3269 25.3262L15.5878 21.1565C15.2373 20.9019 14.7627 20.9019 14.4122 21.1565L8.67312 25.3262C7.88941 25.8956 6.83493 25.1295 7.13428 24.2082L9.32642 17.4615C9.46029 17.0495 9.31363 16.5981 8.96315 16.3435L3.22405 12.1738C2.44034 11.6044 2.84311 10.3647 3.81184 10.3647H10.9057C11.339 10.3647 11.7229 10.0858 11.8568 9.67376L14.0489 2.92705Z" fill="url(#paint0_linear_620_22807)"/>
<path id="Star 4" d="M49.0489 2.92705C49.3483 2.00574 50.6517 2.00574 50.9511 2.92705L53.1432 9.67376C53.2771 10.0858 53.661 10.3647 54.0943 10.3647H61.1882C62.1569 10.3647 62.5597 11.6044 61.776 12.1738L56.0369 16.3435C55.6864 16.5981 55.5397 17.0495 55.6736 17.4615L57.8657 24.2082C58.1651 25.1295 57.1106 25.8956 56.3269 25.3262L50.5878 21.1565C50.2373 20.9019 49.7627 20.9019 49.4122 21.1565L43.6731 25.3262C42.8894 25.8956 41.8349 25.1295 42.1343 24.2082L44.3264 17.4615C44.4603 17.0495 44.3136 16.5981 43.9631 16.3435L38.2241 12.1738C37.4403 11.6044 37.8431 10.3647 38.8118 10.3647H45.9057C46.339 10.3647 46.7229 10.0858 46.8568 9.67376L49.0489 2.92705Z" fill="url(#paint1_linear_620_22807)"/>
<path id="Star 5" d="M84.0489 2.92705C84.3483 2.00574 85.6517 2.00574 85.9511 2.92705L88.1432 9.67376C88.2771 10.0858 88.661 10.3647 89.0943 10.3647H96.1882C97.1569 10.3647 97.5597 11.6044 96.776 12.1738L91.0369 16.3435C90.6864 16.5981 90.5397 17.0495 90.6736 17.4615L92.8657 24.2082C93.1651 25.1295 92.1106 25.8956 91.3269 25.3262L85.5878 21.1565C85.2373 20.9019 84.7627 20.9019 84.4122 21.1565L78.6731 25.3262C77.8894 25.8956 76.8349 25.1295 77.1343 24.2082L79.3264 17.4615C79.4603 17.0495 79.3136 16.5981 78.9631 16.3435L73.2241 12.1738C72.4403 11.6044 72.8431 10.3647 73.8118 10.3647H80.9057C81.339 10.3647 81.7229 10.0858 81.8568 9.67376L84.0489 2.92705Z" fill="url(#paint2_linear_620_22807)"/>
<path id="Star 6" d="M119.049 2.92705C119.348 2.00574 120.652 2.00574 120.951 2.92705L123.143 9.67376C123.277 10.0858 123.661 10.3647 124.094 10.3647H131.188C132.157 10.3647 132.56 11.6044 131.776 12.1738L126.037 16.3435C125.686 16.5981 125.54 17.0495 125.674 17.4615L127.866 24.2082C128.165 25.1295 127.111 25.8956 126.327 25.3262L120.588 21.1565C120.237 20.9019 119.763 20.9019 119.412 21.1565L113.673 25.3262C112.889 25.8956 111.835 25.1295 112.134 24.2082L114.326 17.4615C114.46 17.0495 114.314 16.5981 113.963 16.3435L108.224 12.1738C107.44 11.6044 107.843 10.3647 108.812 10.3647H115.906C116.339 10.3647 116.723 10.0858 116.857 9.67376L119.049 2.92705Z" fill="url(#paint3_linear_620_22807)"/>
<path id="Star 7" d="M154.049 2.92705C154.348 2.00574 155.652 2.00574 155.951 2.92705L158.143 9.67376C158.277 10.0858 158.661 10.3647 159.094 10.3647H166.188C167.157 10.3647 167.56 11.6044 166.776 12.1738L161.037 16.3435C160.686 16.5981 160.54 17.0495 160.674 17.4615L162.866 24.2082C163.165 25.1295 162.111 25.8956 161.327 25.3262L155.588 21.1565C155.237 20.9019 154.763 20.9019 154.412 21.1565L148.673 25.3262C147.889 25.8956 146.835 25.1295 147.134 24.2082L149.326 17.4615C149.46 17.0495 149.314 16.5981 148.963 16.3435L143.224 12.1738C142.44 11.6044 142.843 10.3647 143.812 10.3647H150.906C151.339 10.3647 151.723 10.0858 151.857 9.67376L154.049 2.92705Z" fill="url(#paint4_linear_620_22807)"/>
</g>
<defs>
<linearGradient id="paint0_linear_620_22807" x1="1.30952" y1="-16.1932" x2="25.5001" y2="23.6202" gradientUnits="userSpaceOnUse">
<stop stop-color="#DEA378"/>
<stop offset="1" stop-color="#BD9E88"/>
</linearGradient>
<linearGradient id="paint1_linear_620_22807" x1="36.3095" y1="-16.1932" x2="60.5001" y2="23.6202" gradientUnits="userSpaceOnUse">
<stop stop-color="#DEA378"/>
<stop offset="1" stop-color="#BD9E88"/>
</linearGradient>
<linearGradient id="paint2_linear_620_22807" x1="71.3095" y1="-16.1932" x2="95.5001" y2="23.6202" gradientUnits="userSpaceOnUse">
<stop stop-color="#DEA378"/>
<stop offset="1" stop-color="#BD9E88"/>
</linearGradient>
<linearGradient id="paint3_linear_620_22807" x1="106.31" y1="-16.1932" x2="130.5" y2="23.6202" gradientUnits="userSpaceOnUse">
<stop stop-color="#DEA378"/>
<stop offset="1" stop-color="#BD9E88"/>
</linearGradient>
<linearGradient id="paint4_linear_620_22807" x1="141.31" y1="-16.1932" x2="165.5" y2="23.6202" gradientUnits="userSpaceOnUse">
<stop stop-color="#DEA378"/>
<stop offset="1" stop-color="#BD9E88"/>
</linearGradient>
</defs>
</svg>
