<svg width="26" height="23" viewBox="0 0 26 23" fill="none" xmlns="http://www.w3.org/2000/svg">
<path id="Star 3" d="M12.0545 0.744398C12.3643 -0.154641 13.6357 -0.154642 13.9455 0.744398L16.1354 7.10115C16.2744 7.50462 16.6541 7.77543 17.0809 7.77543H24.0374C25.0202 7.77543 25.4134 9.04478 24.6026 9.60034L19.0774 13.3864C18.7062 13.6408 18.5506 14.1117 18.6972 14.5371L20.831 20.7311C21.1449 21.6422 20.1153 22.4265 19.3203 21.8817L13.5653 17.9382C13.2246 17.7047 12.7754 17.7047 12.4347 17.9382L6.67968 21.8817C5.88475 22.4265 4.85507 21.6422 5.16896 20.7311L7.30285 14.5371C7.4494 14.1117 7.2938 13.6408 6.92264 13.3864L1.39736 9.60034C0.586601 9.04479 0.979776 7.77543 1.96261 7.77543H8.91912C9.34586 7.77543 9.72559 7.50462 9.86458 7.10115L12.0545 0.744398Z" fill="white"/>
</svg>
