<svg width="20" height="20" viewBox="0 0 20 20" fill="none" xmlns="http://www.w3.org/2000/svg">
<g id="svg-gobbler (32) 4" clip-path="url(#clip0_1315_6954)">
<g id="Group">
<path id="Vector" d="M10 0C4.48578 0 0 4.48578 0 10C0 15.5142 4.48578 20 10 20C15.5142 20 20 15.5142 20 10C20 4.48578 15.5142 0 10 0Z" fill="#1E3756"/>
<path id="Vector_2" d="M15.0692 7.88086L9.6525 13.2974C9.49 13.4599 9.27668 13.5417 9.06336 13.5417C8.85004 13.5417 8.63672 13.4599 8.47422 13.2974L5.76594 10.5891C5.44 10.2634 5.44 9.73665 5.76594 9.41087C6.09172 9.08493 6.61828 9.08493 6.94422 9.41087L9.06336 11.53L13.8909 6.70258C14.2167 6.37665 14.7433 6.37665 15.0692 6.70258C15.395 7.02836 15.395 7.55493 15.0692 7.88086Z" fill="white"/>
</g>
</g>
<defs>
<clipPath id="clip0_1315_6954">
<rect width="20" height="20" fill="white"/>
</clipPath>
</defs>
</svg>
