<svg width="13" height="14" viewBox="0 0 13 14" fill="none" xmlns="http://www.w3.org/2000/svg">
<g id="Group 4">
<circle id="Ellipse 2" cx="6.5" cy="6.95792" r="6.5" fill="#F2F0F2"/>
<g id="Group 1">
<mask id="mask0_1315_6973" style="mask-type:alpha" maskUnits="userSpaceOnUse" x="0" y="1" width="13" height="13">
<circle id="Ellipse 1" cx="6.5" cy="7.50003" r="6.5" fill="#FCFCFC"/>
</mask>
<g mask="url(#mask0_1315_6973)">
<g id="Rectangle 1">
<rect x="2.11328" y="12.5373" width="8.9375" height="1.625" fill="#D90026"/>
<rect x="2.11328" y="12.5373" width="8.9375" height="1.625" fill="#D90026"/>
</g>
<g id="Rectangle 2">
<rect x="0.164062" y="9.28726" width="12.8375" height="1.625" fill="#D90026"/>
<rect x="0.164062" y="9.28726" width="12.8375" height="1.625" fill="#D90026"/>
</g>
<g id="Rectangle 3">
<rect x="0.164062" y="5.87509" width="12.8375" height="1.625" fill="#D90026"/>
<rect x="0.164062" y="5.87509" width="12.8375" height="1.625" fill="#D90026"/>
</g>
<g id="Rectangle 4">
<rect x="0.164062" y="2.62506" width="12.8375" height="1.625" fill="#D90026"/>
<rect x="0.164062" y="2.62506" width="12.8375" height="1.625" fill="#D90026"/>
</g>
<rect id="Rectangle 5" y="1.00003" width="6.6625" height="6.5" fill="#0052B5"/>
<path id="Vector 1" d="M5.36094 6.44401L4.87344 6.68776L5.03594 6.20026L4.71094 5.87526H5.19844L5.36094 5.38776L5.60469 5.87526H6.01094L5.68594 6.20026L5.84844 6.68776L5.36094 6.44401Z" fill="#EFEFEF"/>
<path id="Vector 4" d="M3.0875 6.44401L2.6 6.68776L2.7625 6.20026L2.4375 5.87526H2.925L3.0875 5.38776L3.33125 5.87526H3.7375L3.4125 6.20026L3.575 6.68776L3.0875 6.44401Z" fill="#EFEFEF"/>
<path id="Vector 5" d="M0.814062 6.44401L0.326562 6.68776L0.489062 6.20026L0.164062 5.87526H0.651562L0.814062 5.38776L1.05781 5.87526H1.46406L1.13906 6.20026L1.30156 6.68776L0.814062 6.44401Z" fill="#EFEFEF"/>
<path id="Vector 2" d="M5.36094 4.65674L4.87344 4.90049L5.03594 4.41299L4.71094 4.08799H5.19844L5.36094 3.60049L5.60469 4.08799H6.01094L5.68594 4.41299L5.84844 4.90049L5.36094 4.65674Z" fill="#EFEFEF"/>
<path id="Vector 6" d="M5.36094 2.86884L4.87344 3.11259L5.03594 2.62509L4.71094 2.30009H5.19844L5.36094 1.81259L5.60469 2.30009H6.01094L5.68594 2.62509L5.84844 3.11259L5.36094 2.86884Z" fill="#EFEFEF"/>
<path id="Vector 9" d="M5.36094 1.08158L4.87344 1.32533L5.03594 0.83783L4.71094 0.51283H5.19844L5.36094 0.0253296L5.60469 0.51283H6.01094L5.68594 0.83783L5.84844 1.32533L5.36094 1.08158Z" fill="#EFEFEF"/>
<path id="Vector 7" d="M3.0875 2.86884L2.6 3.11259L2.7625 2.62509L2.4375 2.30009H2.925L3.0875 1.81259L3.33125 2.30009H3.7375L3.4125 2.62509L3.575 3.11259L3.0875 2.86884Z" fill="#EFEFEF"/>
<path id="Vector 3" d="M3.0875 4.65674L2.6 4.90049L2.7625 4.41299L2.4375 4.08799H2.925L3.0875 3.60049L3.33125 4.08799H3.7375L3.4125 4.41299L3.575 4.90049L3.0875 4.65674Z" fill="#EFEFEF"/>
<path id="Vector 8" d="M0.814062 4.65674L0.326562 4.90049L0.489062 4.41299L0.164062 4.08799H0.651562L0.814062 3.60049L1.05781 4.08799H1.46406L1.13906 4.41299L1.30156 4.90049L0.814062 4.65674Z" fill="#EFEFEF"/>
</g>
</g>
</g>
</svg>
