<svg width="20" height="20" viewBox="0 0 20 20" fill="none" xmlns="http://www.w3.org/2000/svg">
<g id="svg-gobbler (32) 5" clip-path="url(#clip0_1067_11812)">
<g id="Group">
<path id="Vector" d="M10 0C4.48578 0 0 4.48578 0 10C0 15.5142 4.48578 20 10 20C15.5142 20 20 15.5142 20 10C20 4.48578 15.5142 0 10 0Z" fill="#1E3756"/>
<path id="Vector_2" d="M15.0682 7.88086L9.65152 13.2974C9.48902 13.4599 9.2757 13.5417 9.06238 13.5417C8.84906 13.5417 8.63574 13.4599 8.47324 13.2974L5.76496 10.5891C5.43902 10.2634 5.43902 9.73665 5.76496 9.41087C6.09074 9.08493 6.6173 9.08493 6.94324 9.41087L9.06238 11.53L13.89 6.70258C14.2157 6.37665 14.7423 6.37665 15.0682 6.70258C15.394 7.02836 15.394 7.55493 15.0682 7.88086Z" fill="white"/>
</g>
</g>
<defs>
<clipPath id="clip0_1067_11812">
<rect width="20" height="20" fill="white"/>
</clipPath>
</defs>
</svg>
