<svg width="50" height="50" viewBox="0 0 50 50" fill="none" xmlns="http://www.w3.org/2000/svg">
<path fill-rule="evenodd" clip-rule="evenodd" d="M23.9268 45.2188H46.1139V22.6959H35.6256C35.3611 22.6959 35.1475 22.4823 35.1475 22.2178V18.6267H32.3194C32.177 18.6267 32.0346 18.5555 31.943 18.4436L29.4405 15.29H23.9369L23.9268 45.2188ZM46.5921 46.1852H23.4385C23.174 46.1852 22.9603 45.9716 22.9603 45.7071V14.8119C22.9603 14.5474 23.174 14.3337 23.4385 14.3337H29.6541C29.7965 14.3337 29.939 14.405 30.0305 14.5169L32.5331 17.6705H35.6155C35.88 17.6705 36.0936 17.8841 36.0936 18.1486V21.7396H46.5921C46.8566 21.7396 47.0702 21.9533 47.0702 22.2178V45.7071C47.0702 45.9614 46.8566 46.1852 46.5921 46.1852Z" fill="url(#paint0_linear_563_23718)"/>
<path fill-rule="evenodd" clip-rule="evenodd" d="M39.471 46.1851C39.2065 46.1851 38.9929 45.9715 38.9929 45.707V38.0163H31.0478V45.707C31.0478 45.9715 30.8342 46.1851 30.5697 46.1851C30.3052 46.1851 30.0916 45.9715 30.0916 45.707V37.528C30.0916 37.2635 30.3052 37.0498 30.5697 37.0498H39.4812C39.7457 37.0498 39.9593 37.2635 39.9593 37.528V45.707C39.9491 45.9613 39.7355 46.1851 39.471 46.1851ZM5.50357 45.2187H20.3459V41.9532H5.50357V45.2187ZM20.824 46.1851H5.01527C4.75077 46.1851 4.53714 45.9715 4.53714 45.707V41.4852C4.53714 41.2207 4.75077 41.0071 5.01527 41.0071H20.824C21.0885 41.0071 21.3021 41.2207 21.3021 41.4852V45.707C21.3021 45.9613 21.0885 46.1851 20.824 46.1851ZM26.5616 33.9166H29.5422V32.1058H26.5616V33.9166ZM30.0204 34.883H26.0733C25.8088 34.883 25.5951 34.6694 25.5951 34.4049V31.6276C25.5951 31.3632 25.8088 31.1495 26.0733 31.1495H30.0204C30.2849 31.1495 30.4985 31.3632 30.4985 31.6276V34.4049C30.4985 34.6694 30.2849 34.883 30.0204 34.883ZM33.53 33.9166H36.5107V32.1058H33.53V33.9166ZM36.9888 34.883H33.0519C32.7874 34.883 32.5738 34.6694 32.5738 34.4049V31.6276C32.5738 31.3632 32.7874 31.1495 33.0519 31.1495H36.999C37.2635 31.1495 37.4771 31.3632 37.4771 31.6276V34.4049C37.4669 34.6694 37.2533 34.883 36.9888 34.883ZM40.4883 33.9166H43.469V32.1058H40.4883V33.9166ZM43.9573 34.883H40.0102C39.7457 34.883 39.5321 34.6694 39.5321 34.4049V31.6276C39.5321 31.3632 39.7457 31.1495 40.0102 31.1495H43.9573C44.2218 31.1495 44.4354 31.3632 44.4354 31.6276V34.4049C44.4354 34.6694 44.2218 34.883 43.9573 34.883ZM26.5616 27.6195H29.5422V25.8087H26.5616V27.6195ZM30.0204 28.5859H26.0733C25.8088 28.5859 25.5951 28.3723 25.5951 28.1078V25.3306C25.5951 25.0661 25.8088 24.8525 26.0733 24.8525H30.0204C30.2849 24.8525 30.4985 25.0661 30.4985 25.3306V28.1078C30.4985 28.3723 30.2849 28.5859 30.0204 28.5859ZM33.53 27.6195H36.5107V25.8087H33.53V27.6195ZM36.9888 28.5859H33.0519C32.7874 28.5859 32.5738 28.3723 32.5738 28.1078V25.3306C32.5738 25.0661 32.7874 24.8525 33.0519 24.8525H36.999C37.2635 24.8525 37.4771 25.0661 37.4771 25.3306V28.1078C37.4669 28.3723 37.2533 28.5859 36.9888 28.5859ZM40.4883 27.6195H43.469V25.8087H40.4883V27.6195ZM43.9573 28.5859H40.0102C39.7457 28.5859 39.5321 28.3723 39.5321 28.1078V25.3306C39.5321 25.0661 39.7457 24.8525 40.0102 24.8525H43.9573C44.2218 24.8525 44.4354 25.0661 44.4354 25.3306V28.1078C44.4354 28.3723 44.2218 28.5859 43.9573 28.5859ZM26.5616 21.3225H29.5422V19.5117H26.5616V21.3225ZM30.0204 22.2889H26.0733C25.8088 22.2889 25.5951 22.0753 25.5951 21.8108V19.0335C25.5951 18.7691 25.8088 18.5554 26.0733 18.5554H30.0204C30.2849 18.5554 30.4985 18.7691 30.4985 19.0335V21.8108C30.4985 22.0651 30.2849 22.2889 30.0204 22.2889Z" fill="url(#paint1_linear_563_23718)"/>
<path fill-rule="evenodd" clip-rule="evenodd" d="M9.46085 41.9533C9.19636 41.9533 8.98273 41.7397 8.98273 41.4752V12.055C8.98273 11.7905 9.19636 11.5769 9.46085 11.5769C9.72535 11.5769 9.93898 11.7905 9.93898 12.055V41.465C9.94916 41.7397 9.72535 41.9533 9.46085 41.9533ZM16.3785 41.9533C16.114 41.9533 15.9003 41.7397 15.9003 41.4752V12.055C15.9003 11.7905 16.114 11.5769 16.3785 11.5769C16.643 11.5769 16.8566 11.7905 16.8566 12.055V41.465C16.8566 41.7397 16.643 41.9533 16.3785 41.9533Z" fill="black"/>
<path fill-rule="evenodd" clip-rule="evenodd" d="M9.46082 31.8313C9.36927 31.8313 9.26754 31.8008 9.18615 31.7499C8.96235 31.5973 8.91148 31.3023 9.06408 31.0785L15.9817 20.9564C16.1343 20.7326 16.4293 20.6817 16.6531 20.8343C16.8769 20.9869 16.9278 21.282 16.7752 21.5058L9.85757 31.6278C9.76601 31.7601 9.61342 31.8313 9.46082 31.8313Z" fill="black"/>
<path fill-rule="evenodd" clip-rule="evenodd" d="M16.3784 31.8311C16.2258 31.8311 16.0732 31.7599 15.9817 31.6175L9.06407 21.4954C8.91148 21.2716 8.97252 20.9766 9.18615 20.824C9.40995 20.6714 9.70497 20.7325 9.85756 20.9461L16.7752 31.0682C16.9278 31.292 16.8667 31.587 16.6531 31.7396C16.5717 31.8006 16.47 31.8311 16.3784 31.8311ZM16.3784 41.9532C16.2258 41.9532 16.0732 41.882 15.9817 41.7396L9.06407 31.6175C8.91148 31.3937 8.97252 31.0987 9.18615 30.9461C9.40995 30.7935 9.70497 30.8545 9.85756 31.0682L16.7752 41.1902C16.9278 41.4141 16.8667 41.7091 16.6531 41.8617C16.5717 41.9329 16.47 41.9532 16.3784 41.9532Z" fill="black"/>
<path fill-rule="evenodd" clip-rule="evenodd" d="M9.46082 41.9533C9.36927 41.9533 9.26754 41.9227 9.18615 41.8719C8.96235 41.7193 8.91148 41.4243 9.06408 41.2005L15.9817 31.0784C16.1343 30.8546 16.4293 30.8037 16.6531 30.9563C16.8769 31.1089 16.9278 31.4039 16.7752 31.6277L9.85757 41.7498C9.76601 41.882 9.61342 41.9533 9.46082 41.9533ZM16.3784 21.6989C16.2258 21.6989 16.0732 21.6277 15.9817 21.4853L9.87791 12.5433C9.72532 12.3195 9.78636 12.0245 9.99999 11.8719C10.2238 11.7193 10.5188 11.7803 10.6714 11.9939L16.7752 20.936C16.9278 21.1598 16.8667 21.4548 16.6531 21.6074C16.5717 21.6786 16.47 21.6989 16.3784 21.6989Z" fill="black"/>
<path fill-rule="evenodd" clip-rule="evenodd" d="M9.46084 21.6989C9.36928 21.6989 9.26755 21.6684 9.18617 21.6175C8.96236 21.4649 8.9115 21.1699 9.06409 20.9461L15.1679 12.0041C15.3205 11.7803 15.6155 11.7294 15.8393 11.882C16.0631 12.0346 16.1139 12.3296 15.9613 12.5534L9.85758 21.4955C9.76603 21.6277 9.61343 21.6989 9.46084 21.6989ZM8.93184 11.5768H3.40794C3.14344 11.5768 2.92981 11.3632 2.92981 11.0987V5.54429C2.92981 5.27979 3.14344 5.06616 3.40794 5.06616H8.93184C9.19634 5.06616 9.40997 5.27979 9.40997 5.54429C9.40997 5.80879 9.19634 6.02242 8.93184 6.02242H3.89624V10.6104H8.93184C9.19634 10.6104 9.40997 10.824 9.40997 11.0885C9.42015 11.3632 9.19634 11.5768 8.93184 11.5768ZM43.53 11.5768H16.9074C16.6429 11.5768 16.4293 11.3632 16.4293 11.0987C16.4293 10.8342 16.6429 10.6206 16.9074 10.6206H43.0519V6.02242H16.9074C16.6429 6.02242 16.4293 5.80879 16.4293 5.54429C16.4293 5.27979 16.6429 5.06616 16.9074 5.06616H43.53C43.7945 5.06616 44.0081 5.27979 44.0081 5.54429V11.0987C44.0081 11.3632 43.7945 11.5768 43.53 11.5768Z" fill="black"/>
<path fill-rule="evenodd" clip-rule="evenodd" d="M10.1628 4.78137C9.74568 4.78137 9.40997 5.11708 9.40997 5.53417V11.0377C9.40997 11.4548 9.74568 11.7905 10.1628 11.7905H15.6765C16.0936 11.7905 16.4293 11.4548 16.4293 11.0377V5.53417C16.4293 5.11708 16.0936 4.78137 15.6765 4.78137H10.1628ZM15.6765 12.7671H10.1628C9.21669 12.7671 8.44354 11.994 8.44354 11.0479V5.53417C8.44354 4.58808 9.21669 3.81494 10.1628 3.81494H15.6765C16.6226 3.81494 17.3957 4.58808 17.3957 5.53417V11.0377C17.3957 11.994 16.6226 12.7671 15.6765 12.7671ZM34.6592 11.5769C34.4964 11.5769 34.3438 11.4955 34.2523 11.3531C34.1099 11.1293 34.1811 10.8343 34.4049 10.6918L43.2757 5.13742C43.4995 4.995 43.7945 5.06621 43.9369 5.29002C44.0793 5.51382 44.0081 5.80884 43.7843 5.95126L34.9135 11.5057C34.8321 11.5565 34.7406 11.5769 34.6592 11.5769Z" fill="black"/>
<path fill-rule="evenodd" clip-rule="evenodd" d="M43.53 11.5768C43.4385 11.5768 43.3571 11.5565 43.2757 11.5056L34.4049 5.95121C34.1811 5.80878 34.1099 5.51377 34.2523 5.28996C34.3947 5.06616 34.6898 4.99495 34.9136 5.13737L43.7844 10.6918C44.0082 10.8342 44.0794 11.1292 43.937 11.353C43.8454 11.4955 43.6928 11.5768 43.53 11.5768ZM34.6592 11.5768C34.5677 11.5768 34.4863 11.5565 34.4049 11.5056L25.5341 5.95121C25.3103 5.80878 25.2391 5.51377 25.3815 5.28996C25.5239 5.06616 25.8189 4.99495 26.0428 5.13737L34.9136 10.6918C35.1374 10.8342 35.2086 11.1292 35.0662 11.353C34.9746 11.4955 34.8118 11.5768 34.6592 11.5768Z" fill="black"/>
<path fill-rule="evenodd" clip-rule="evenodd" d="M25.7884 11.5768C25.6257 11.5768 25.4731 11.4955 25.3815 11.353C25.2391 11.1292 25.3103 10.8342 25.5341 10.6918L34.4049 5.13737C34.6287 4.99495 34.9237 5.06616 35.0661 5.28996C35.2086 5.51377 35.1374 5.80878 34.9136 5.95121L26.0427 11.5056C25.9614 11.5565 25.8698 11.5768 25.7884 11.5768ZM16.9074 11.5768C16.7447 11.5768 16.5921 11.4955 16.5005 11.353C16.3581 11.1292 16.4293 10.8342 16.6531 10.6918L25.5239 5.13737C25.7477 4.99495 26.0427 5.06616 26.1852 5.28996C26.3276 5.51377 26.2564 5.80878 26.0326 5.95121L17.1618 11.5056C17.0906 11.5565 16.999 11.5768 16.9074 11.5768Z" fill="black"/>
<path fill-rule="evenodd" clip-rule="evenodd" d="M25.7783 11.5768C25.6867 11.5768 25.6053 11.5565 25.5239 11.5056L16.6531 5.95121C16.4293 5.80878 16.3581 5.51377 16.5005 5.28996C16.643 5.06616 16.938 4.99495 17.1618 5.13737L26.0326 10.6918C26.2564 10.8342 26.3276 11.1292 26.1852 11.353C26.1038 11.4955 25.941 11.5768 25.7783 11.5768ZM39.8373 16.409C39.5728 16.409 39.3591 16.1954 39.3591 15.9309V11.0987C39.3591 10.8342 39.5728 10.6206 39.8373 10.6206C40.1018 10.6206 40.3154 10.8342 40.3154 11.0987V15.9309C40.3256 16.1954 40.1119 16.409 39.8373 16.409ZM41.7192 16.409C41.4548 16.409 41.2411 16.1954 41.2411 15.9309V11.0987C41.2411 10.8342 41.4548 10.6206 41.7192 10.6206C41.9837 10.6206 42.1974 10.8342 42.1974 11.0987V15.9309C42.2075 16.1954 41.9939 16.409 41.7192 16.409Z" fill="black"/>
<path fill-rule="evenodd" clip-rule="evenodd" d="M38.2503 18.637H43.3062V16.4091H38.2503V18.637ZM43.7945 19.6034H37.7721C37.5076 19.6034 37.294 19.3898 37.294 19.1253V15.931C37.294 15.6665 37.5076 15.4529 37.7721 15.4529H43.7945C44.059 15.4529 44.2726 15.6665 44.2726 15.931V19.1253C44.2726 19.3898 44.059 19.6034 43.7945 19.6034Z" fill="black"/>
<defs>
<linearGradient id="paint0_linear_563_23718" x1="24.0127" y1="-2.85882" x2="52.2655" y2="32.3385" gradientUnits="userSpaceOnUse">
<stop stop-color="#DEA378"/>
<stop offset="1" stop-color="#BD9E88"/>
</linearGradient>
<linearGradient id="paint1_linear_563_23718" x1="6.27873" y1="3.64166" x2="24.2256" y2="46.2948" gradientUnits="userSpaceOnUse">
<stop stop-color="#DEA378"/>
<stop offset="1" stop-color="#BD9E88"/>
</linearGradient>
</defs>
</svg>
