<svg width="50" height="50" viewBox="0 0 50 50" fill="none" xmlns="http://www.w3.org/2000/svg">
    <g clip-path="url(#clip0_563_23752)">
        <path d="M46.135 5.4795H41.3894V3.08224C41.3894 2.88761 41.3121 2.70095 41.1745 2.56333C41.0369 2.42571 40.8502 2.34839 40.6556 2.34839C40.4609 2.34839 40.2743 2.42571 40.1367 2.56333C39.999 2.70095 39.9217 2.88761 39.9217 3.08224V5.4795H33.5616V3.08224C33.5616 2.88761 33.4843 2.70095 33.3467 2.56333C33.2091 2.42571 33.0224 2.34839 32.8278 2.34839C32.6332 2.34839 32.4465 2.42571 32.3089 2.56333C32.1712 2.70095 32.0939 2.88761 32.0939 3.08224V5.4795H25.7339V3.08224C25.7339 2.88761 25.6565 2.70095 25.5189 2.56333C25.3813 2.42571 25.1946 2.34839 25 2.34839C24.8054 2.34839 24.6187 2.42571 24.4811 2.56333C24.3435 2.70095 24.2661 2.88761 24.2661 3.08224V5.4795H17.9061V3.08224C17.9061 2.88761 17.8287 2.70095 17.6911 2.56333C17.5535 2.42571 17.3668 2.34839 17.1722 2.34839C16.9776 2.34839 16.7909 2.42571 16.6533 2.56333C16.5157 2.70095 16.4384 2.88761 16.4384 3.08224V5.4795H10.0783V3.08224C10.0783 2.88761 10.001 2.70095 9.86334 2.56333C9.72571 2.42571 9.53905 2.34839 9.34442 2.34839C9.14979 2.34839 8.96313 2.42571 8.82551 2.56333C8.68788 2.70095 8.61057 2.88761 8.61057 3.08224V5.4795H3.86497C1.73386 5.4795 0 7.21336 0 9.34447V43.7867C0 45.9179 1.73386 47.6517 3.86497 47.6517H46.135C48.2661 47.6517 50 45.9179 50 43.7867V9.34447C50 7.21336 48.2661 5.4795 46.135 5.4795ZM48.5323 43.7867C48.5323 45.1086 47.4568 46.184 46.135 46.184H3.86497C2.54315 46.184 1.46771 45.1086 1.46771 43.7867V9.34447C1.46771 8.02266 2.54315 6.94721 3.86497 6.94721H8.61057V9.34447C8.61057 9.53911 8.68788 9.72576 8.82551 9.86339C8.96313 10.001 9.14979 10.0783 9.34442 10.0783C9.53905 10.0783 9.72571 10.001 9.86334 9.86339C10.001 9.72576 10.0783 9.53911 10.0783 9.34447V6.94721H16.4384V9.34447C16.4384 9.53911 16.5157 9.72576 16.6533 9.86339C16.7909 10.001 16.9776 10.0783 17.1722 10.0783C17.3668 10.0783 17.5535 10.001 17.6911 9.86339C17.8287 9.72576 17.9061 9.53911 17.9061 9.34447V6.94721H24.2661V9.34447C24.2661 9.53911 24.3435 9.72576 24.4811 9.86339C24.6187 10.001 24.8054 10.0783 25 10.0783C25.1946 10.0783 25.3813 10.001 25.5189 9.86339C25.6565 9.72576 25.7339 9.53911 25.7339 9.34447V6.94721H32.0939V9.34447C32.0939 9.53911 32.1712 9.72576 32.3089 9.86339C32.4465 10.001 32.6332 10.0783 32.8278 10.0783C33.0224 10.0783 33.2091 10.001 33.3467 9.86339C33.4843 9.72576 33.5616 9.53911 33.5616 9.34447V6.94721H39.9217V9.34447C39.9217 9.53911 39.999 9.72576 40.1367 9.86339C40.2743 10.001 40.4609 10.0783 40.6556 10.0783C40.8502 10.0783 41.0369 10.001 41.1745 9.86339C41.3121 9.72576 41.3894 9.53911 41.3894 9.34447V6.94721H46.135C47.4568 6.94721 48.5323 8.02266 48.5323 9.34447V43.7867Z" fill="black"/>
        <path d="M46.135 13.3074H3.86496C3.67033 13.3074 3.48367 13.3847 3.34604 13.5223C3.20842 13.6599 3.1311 13.8466 3.1311 14.0412C3.1311 14.2359 3.20842 14.4225 3.34604 14.5601C3.48367 14.6978 3.67033 14.7751 3.86496 14.7751H46.135C46.3296 14.7751 46.5163 14.6978 46.6539 14.5601C46.7916 14.4225 46.8689 14.2359 46.8689 14.0412C46.8689 13.8466 46.7916 13.6599 46.6539 13.5223C46.5163 13.3847 46.3296 13.3074 46.135 13.3074ZM43.6888 17.2213H6.31114C5.85253 17.2213 5.47944 17.5944 5.47944 18.053V42.9062C5.47944 43.3648 5.85253 43.7379 6.31114 43.7379H43.6888C44.1474 43.7379 44.5205 43.3648 44.5205 42.9062V18.053C44.5205 17.5944 44.1474 17.2213 43.6888 17.2213ZM33.6595 29.7457H25.7338V24.9512H33.6595V29.7457ZM35.1272 24.9512H43.0528V29.7457H35.1272V24.9512ZM25.7338 23.4835V18.689H33.6595V23.4835H25.7338ZM24.2661 23.4835H16.3405V18.689H24.2661V23.4835ZM24.2661 24.9512V29.7457H16.3405V24.9512H24.2661ZM14.8728 29.7457H6.94715V24.9512H14.8728V29.7457ZM6.94715 31.2134H14.8728V36.008H6.94715V31.2134ZM16.3405 31.2134H24.2661V36.008H16.3405V31.2134ZM24.2661 37.4757V42.2702H16.3405V37.4757H24.2661ZM25.7338 37.4757H33.6595V42.2702H25.7338V37.4757ZM25.7338 36.008V31.2134H33.6595V36.008H25.7338ZM35.1272 31.2134H43.0528V36.008H35.1272V31.2134ZM43.0528 23.4835H35.1272V18.689H43.0528V23.4835ZM14.8728 18.689V23.4835H6.94715V18.689H14.8728ZM6.94715 37.4757H14.8728V42.2702H6.94715V37.4757ZM35.1272 42.2702V37.4757H43.0528V42.2702H35.1272Z" fill="url(#paint0_linear_563_23752)"/>
    </g>
    <defs>
        <linearGradient id="paint0_linear_563_23752" x1="5.04029" y1="-3.1182" x2="24.8711" y2="43.7924" gradientUnits="userSpaceOnUse">
            <stop stop-color="#DEA378"/>
            <stop offset="1" stop-color="#BD9E88"/>
        </linearGradient>
        <clipPath id="clip0_563_23752">
            <rect width="50" height="50" fill="white"/>
        </clipPath>
    </defs>
</svg>
