<svg width="14" height="17" viewBox="0 0 14 17" fill="none" xmlns="http://www.w3.org/2000/svg">
<path d="M7 0C3.14026 0 0 3.10188 0 6.91472C0 9.68693 3.50122 14.028 5.58904 16.3697C5.76645 16.568 5.98385 16.7266 6.227 16.8352C6.47016 16.9439 6.73358 17 7 17C7.26642 17 7.52984 16.9439 7.77299 16.8352C8.01615 16.7266 8.23355 16.568 8.41096 16.3697C10.4982 14.0292 14 9.68754 14 6.91472C14 3.10188 10.8597 0 7 0ZM7 3.91727C8.67817 3.91727 10.0435 5.26209 10.0435 6.91472C10.0435 8.56736 8.67817 9.91218 7 9.91218C5.32183 9.91218 3.95652 8.56736 3.95652 6.91472C3.95652 5.26209 5.32183 3.91727 7 3.91727Z" fill="url(#paint0_linear_300_7500)"/>
<defs>
<linearGradient id="paint0_linear_300_7500" x1="0.611112" y1="-9.17614" x2="15.3685" y2="10.8258" gradientUnits="userSpaceOnUse">
<stop stop-color="#DEA378"/>
<stop offset="1" stop-color="#BD9E88"/>
</linearGradient>
</defs>
</svg>
