<svg width="18" height="15" viewBox="0 0 18 15" fill="none" xmlns="http://www.w3.org/2000/svg">
<path fill-rule="evenodd" clip-rule="evenodd" d="M0 1.84766C0 1.29537 0.447715 0.847656 1 0.847656H17C17.5523 0.847656 18 1.29537 18 1.84766V13.152C18 13.7043 17.5523 14.152 17 14.152H1C0.447716 14.152 0 13.7043 0 13.152V1.84766Z" fill="#E30A17"/>
<path fill-rule="evenodd" clip-rule="evenodd" d="M11.4466 7.70808C11.4466 9.54297 9.91098 11.0314 8.01536 11.0314C6.11973 11.0314 4.58411 9.54297 4.58411 7.70531C4.58411 5.86765 6.11973 4.38477 8.01536 4.38477C9.91098 4.38477 11.4466 5.87319 11.4466 7.70808Z" fill="white"/>
<path fill-rule="evenodd" clip-rule="evenodd" d="M11.6144 7.70546C11.6144 9.17448 10.3882 10.3636 8.87226 10.3636C7.35632 10.3636 6.12726 9.17171 6.12726 7.70269C6.12726 6.23367 7.35632 5.04736 8.87226 5.04736C10.3882 5.04736 11.6173 6.23644 11.6173 7.70546H11.6144Z" fill="#E30A17"/>
<path fill-rule="evenodd" clip-rule="evenodd" d="M12.1132 6.15512L12.0851 7.383L10.9235 7.69343L12.071 8.09533L12.0429 9.22343L12.7882 8.34202L13.9188 8.73006L13.2663 7.7849L14.0623 6.84528L12.8388 7.17789L12.1132 6.15234V6.15512Z" fill="white"/>
</svg>
