<svg width="16" height="14" viewBox="0 0 16 14" fill="none" xmlns="http://www.w3.org/2000/svg">
<path id="Vector" opacity="0.4" d="M4.86722 0.40089L4.8672 0.400889C3.60397 0.374668 2.37607 0.929822 1.57868 1.87441C0.0607611 3.6726 -0.185874 6.82961 2.0016 8.59611L2.01187 8.60441L2.02158 8.61337L7.0275 13.2336L7.02753 13.2336C7.55674 13.7221 8.44247 13.7221 8.97168 13.2336L8.9717 13.2336L13.9774 8.61337L13.9872 8.60438L13.9975 8.59606C16.1858 6.82958 15.9394 3.67276 14.4217 1.87458L4.86722 0.40089ZM4.86722 0.40089C5.86948 0.421642 6.87596 0.972628 7.6944 1.93799L7.99947 2.29783M4.86722 0.40089L7.99947 2.29783M7.99947 2.29783L8.30458 1.93803M7.99947 2.29783L8.30458 1.93803M8.30458 1.93803C9.12321 0.972666 10.1295 0.421833 11.1318 0.400889L8.30458 1.93803ZM11.1319 0.400888C12.3952 0.374682 13.6231 0.929744 14.4215 1.8744L11.1319 0.400888Z" stroke="#161616" stroke-width="0.8"/>
</svg>
