<svg width="21" height="17" viewBox="0 0 21 17" fill="none" xmlns="http://www.w3.org/2000/svg">
<g id="Group">
<path id="Vector" d="M13.0176 1.96948L13.0175 1.96945C13.0042 1.95917 12.989 1.95333 12.9734 1.9521C12.9579 1.95088 12.9422 1.95426 12.9279 1.96219C12.9136 1.97015 12.9011 1.98251 12.8921 1.99838C12.8832 2.01427 12.8783 2.03282 12.8783 2.05196V2.052V3.9701C12.8783 4.26068 12.7714 4.54006 12.5801 4.74661C12.3886 4.9533 12.1281 5.07021 11.8556 5.07021H9.19864C5.16215 5.07021 1.88376 8.60372 1.88376 12.971V15.022C1.88376 15.0326 1.88484 15.0383 1.88548 15.0408C1.88979 15.0447 1.89463 15.047 1.89934 15.0479L1.90286 15.0486L1.90283 15.0487C1.90709 15.0498 1.91153 15.0498 1.91585 15.0486L13.0176 1.96948ZM13.0176 1.96948L19.0776 6.64187L19.0777 6.64189C19.0889 6.65052 19.0984 6.66208 19.1052 6.67589C19.1121 6.68972 19.116 6.70527 19.1164 6.72129C19.1168 6.73732 19.1138 6.75313 19.1078 6.76745C19.1017 6.78176 19.0927 6.79401 19.082 6.80342L19.0819 6.80345L13.0219 12.102L13.0218 12.102C13.0087 12.1136 12.9932 12.1205 12.9773 12.1225C12.9614 12.1246 12.9452 12.1217 12.9304 12.1141C12.9155 12.1065 12.9023 12.0941 12.8929 12.078C12.8835 12.0619 12.8783 12.0429 12.8783 12.0232V10.4499C12.8783 10.1593 12.7714 9.87991 12.5801 9.67335C12.3886 9.46667 12.1281 9.34976 11.8556 9.34976H9.95597C8.24882 9.34982 6.5792 9.8882 5.1522 10.8983C3.7253 11.9083 2.60325 13.3458 1.92333 15.0338L13.0176 1.96948ZM12.9837 12.1721C13.0097 12.1688 13.0344 12.1575 13.0548 12.1396L12.8283 12.0232C12.8283 12.0516 12.8357 12.0793 12.8498 12.1033C12.8638 12.1272 12.8838 12.1464 12.9075 12.1586C12.9312 12.1708 12.9576 12.1755 12.9837 12.1721ZM19.6231 5.8306L13.5631 1.15792C13.2243 0.896567 12.8181 0.896618 12.4979 1.07452C12.1781 1.25219 11.9445 1.60661 11.9445 2.052V3.9701C11.9445 3.9978 11.9343 4.02368 11.9171 4.0422C11.9001 4.06058 11.8779 4.07011 11.8556 4.07011H9.19864C4.63934 4.07011 0.95 8.05868 0.95 12.971V15.022C0.95 15.5757 1.30267 15.9357 1.70941 16.027C2.11675 16.1185 2.57533 15.9398 2.7806 15.4302C3.38894 13.9199 4.39239 12.635 5.66716 11.7327C6.94188 10.8305 8.43251 10.3502 9.95597 10.3502H11.8556C11.8779 10.3502 11.9001 10.3597 11.9171 10.3781C11.9343 10.3966 11.9445 10.4225 11.9445 10.4502V12.0232C11.9445 12.4839 12.1924 12.8441 12.5257 13.0157C12.8594 13.1875 13.278 13.1695 13.6124 12.877C13.6124 12.877 13.6124 12.877 13.6124 12.877L19.6725 7.57841C19.7948 7.47144 19.8923 7.33568 19.9575 7.1819C20.0228 7.02813 20.0543 6.86032 20.0495 6.69151C20.0448 6.5227 20.004 6.35722 19.9301 6.20793C19.8563 6.05864 19.7513 5.92942 19.6231 5.8306Z" fill="url(#paint0_linear_620_16391)" stroke="url(#paint1_linear_620_16391)" stroke-width="0.1"/>
</g>
<defs>
<linearGradient id="paint0_linear_620_16391" x1="-5.01319" y1="3.82372" x2="21.9845" y2="8.9346" gradientUnits="userSpaceOnUse">
<stop stop-color="#001A31"/>
<stop offset="1" stop-color="#173A58"/>
</linearGradient>
<linearGradient id="paint1_linear_620_16391" x1="-5.01319" y1="3.82372" x2="21.9845" y2="8.9346" gradientUnits="userSpaceOnUse">
<stop stop-color="#001A31"/>
<stop offset="1" stop-color="#173A58"/>
</linearGradient>
</defs>
</svg>
