<svg width="38" height="38" viewBox="0 0 38 38" fill="none" xmlns="http://www.w3.org/2000/svg">
<path d="M36.4503 14.4994C36.2928 14.2834 36.0876 14.1066 35.8506 13.9828L31.4688 11.7147V5.34375C31.4673 4.87177 31.2792 4.41952 30.9455 4.08577C30.6117 3.75203 30.1595 3.56391 29.6875 3.5625H8.3125C7.84052 3.56391 7.38827 3.75203 7.05452 4.08577C6.72078 4.41952 6.53266 4.87177 6.53125 5.34375V11.7147L2.14937 13.9828C1.85988 14.1344 1.61729 14.3622 1.44778 14.6416C1.27827 14.921 1.18827 15.2413 1.1875 15.5681V32.6562C1.18891 33.1282 1.37703 33.5805 1.71077 33.9142C2.04452 34.248 2.49677 34.4361 2.96875 34.4375H35.0312C35.5032 34.4361 35.9555 34.248 36.2892 33.9142C36.623 33.5805 36.8111 33.1282 36.8125 32.6562V15.5681C36.8153 15.1813 36.6877 14.8048 36.4503 14.4994ZM3.68125 33.25L17.2663 23.37C17.7709 23.0019 18.379 22.8027 19.0037 22.8008C19.6284 22.799 20.2376 22.9947 20.7444 23.3599L34.504 33.25H3.68125ZM2.375 32.6562V15.9778L14.2025 24.13L2.38806 32.7216C2.38242 32.7001 2.37805 32.6783 2.375 32.6562ZM23.8266 24.1122L35.625 15.9885V32.5933L23.8266 24.1122ZM35.223 14.9981L31.4688 17.5512V13.0566L35.223 14.9981ZM7.71875 5.34375C7.71922 5.18642 7.78193 5.03567 7.89317 4.92442C8.00442 4.81318 8.15517 4.75047 8.3125 4.75H29.6875C29.8448 4.75047 29.9956 4.81318 30.1068 4.92442C30.2181 5.03567 30.2808 5.18642 30.2812 5.34375V18.2163L22.8006 23.3759L21.4379 22.3963C20.7284 21.8847 19.8753 21.6106 19.0007 21.6132C18.126 21.6157 17.2745 21.8948 16.568 22.4105L15.2202 23.3902L15.2178 23.3878L7.71875 18.2222V5.34375ZM6.53125 13.0566V17.5406L2.78528 14.9934L6.53125 13.0566Z" fill="white"/>
</svg>
