<svg width="14" height="11" viewBox="0 0 14 11" fill="none" xmlns="http://www.w3.org/2000/svg">
<g id="&#208;&#164;&#208;&#187;&#208;&#176;&#208;&#179;">
<path id="Vector" fill-rule="evenodd" clip-rule="evenodd" d="M0 1.32617C0 0.773886 0.447715 0.326172 1 0.326172H13C13.5523 0.326172 14 0.773887 14 1.32617V9.674C14 10.2263 13.5523 10.674 13 10.674H1C0.447716 10.674 0 10.2263 0 9.674V1.32617Z" fill="#E30A17"/>
<path id="Vector_2" fill-rule="evenodd" clip-rule="evenodd" d="M8.90391 5.66195C8.90391 7.08909 7.70953 8.24675 6.23516 8.24675C4.76078 8.24675 3.56641 7.08909 3.56641 5.65979C3.56641 4.2305 4.76078 3.07715 6.23516 3.07715C7.70953 3.07715 8.90391 4.23481 8.90391 5.66195Z" fill="white"/>
<path id="Vector_3" fill-rule="evenodd" clip-rule="evenodd" d="M9.03344 5.66018C9.03344 6.80276 8.07969 7.72759 6.90062 7.72759C5.72156 7.72759 4.76562 6.8006 4.76562 5.65803C4.76562 4.51545 5.72156 3.59277 6.90062 3.59277C8.07969 3.59277 9.03562 4.51761 9.03562 5.66018H9.03344Z" fill="#E30A17"/>
<path id="Vector_4" fill-rule="evenodd" clip-rule="evenodd" d="M9.42141 4.4543L9.39953 5.40932L8.49609 5.65077L9.38859 5.96336L9.36672 6.84077L9.94641 6.15523L10.8258 6.45704L10.3183 5.72191L10.9373 4.9911L9.98578 5.24979L9.42141 4.45215V4.4543Z" fill="white"/>
</g>
</svg>
