<svg width="50" height="50" viewBox="0 0 50 50" fill="none" xmlns="http://www.w3.org/2000/svg">
<path d="M0 5C0 2.23858 2.23858 0 5 0H45C47.7614 0 50 2.23858 50 5V45C50 47.7614 47.7614 50 45 50H5C2.23858 50 0 47.7614 0 45V5Z" fill="url(#paint0_linear_1201_22958)"/>
<path d="M30.5754 13.3335H20.2566C16.8982 13.3335 14.166 16.0657 14.166 19.424V29.7431C14.166 33.1013 16.8982 35.8335 20.2566 35.8335H30.5756C33.9338 35.8335 36.666 33.1013 36.666 29.7431V19.424C36.666 16.0657 33.9338 13.3335 30.5754 13.3335ZM25.416 30.7356C22.0236 30.7356 19.2638 27.9759 19.2638 24.5835C19.2638 21.1911 22.0236 18.4313 25.416 18.4313C28.8084 18.4313 31.5682 21.1911 31.5682 24.5835C31.5682 27.9759 28.8084 30.7356 25.416 30.7356ZM31.7153 19.8822C30.7128 19.8822 29.8974 19.0668 29.8974 18.0643C29.8974 17.0618 30.7128 16.2463 31.7153 16.2463C32.7178 16.2463 33.5333 17.0618 33.5333 18.0643C33.5333 19.0668 32.7178 19.8822 31.7153 19.8822Z" fill="white"/>
<path d="M31.7157 17.5654C31.4407 17.5654 31.2168 17.7893 31.2168 18.0643C31.2168 18.3393 31.4407 18.5632 31.7157 18.5632C31.9908 18.5632 32.2147 18.3395 32.2147 18.0643C32.2147 17.7892 31.9908 17.5654 31.7157 17.5654Z" fill="white"/>
<path d="M21.8789 24.5836C21.8789 22.6339 23.4651 21.0479 25.4146 21.0479C27.3643 21.0479 28.9503 22.6339 28.9503 24.5836C28.9503 26.5331 27.3643 28.1193 25.4146 28.1193C23.4651 28.1193 21.8789 26.5331 21.8789 24.5836Z" fill="white"/>
<defs>
<linearGradient id="paint0_linear_1201_22958" x1="-15.8242" y1="9.41241" x2="56.1605" y2="20.1708" gradientUnits="userSpaceOnUse">
<stop stop-color="#001A31"/>
<stop offset="1" stop-color="#173A58"/>
</linearGradient>
</defs>
</svg>
