<svg width="50" height="50" viewBox="0 0 50 50" fill="none" xmlns="http://www.w3.org/2000/svg">
<g id="&#208;&#161;&#208;&#190;&#209;&#134;.&#209;&#129;&#208;&#181;&#209;&#130;&#208;&#184;">
<rect id="Rectangle 1396" width="50" height="50" rx="5" fill="url(#paint0_linear_620_24437)"/>
<path id="Vector" d="M14.648 24.8384L19.6792 26.547L31.6253 19.2439C31.7988 19.1384 31.9761 19.3736 31.8269 19.5111L22.7831 27.8353L22.4472 32.4954C22.4417 32.5735 22.4601 32.6514 22.4999 32.7188C22.5397 32.7862 22.599 32.8398 22.67 32.8727C22.7411 32.9056 22.8204 32.9161 22.8975 32.9029C22.9746 32.8896 23.0459 32.8533 23.1019 32.7986L25.8863 30.0603L30.9769 33.9134C31.5253 34.329 32.3199 34.0361 32.4675 33.3642L36.012 17.2704C36.2144 16.3525 35.3144 15.5775 34.437 15.9134L14.623 23.5009C14.0011 23.7392 14.0183 24.6243 14.648 24.8384Z" fill="white"/>
</g>
<defs>
<linearGradient id="paint0_linear_620_24437" x1="-15.8242" y1="9.41241" x2="56.1605" y2="20.1708" gradientUnits="userSpaceOnUse">
<stop stop-color="#001A31"/>
<stop offset="1" stop-color="#173A58"/>
</linearGradient>
</defs>
</svg>
