<svg width="15" height="9" viewBox="0 0 15 9" fill="none" xmlns="http://www.w3.org/2000/svg">
<path id="Vector" d="M0.31398 0.329402C0.515082 0.118486 0.787799 -6.21235e-07 1.07216 -6.08805e-07C1.35652 -5.96376e-07 1.62923 0.118486 1.83034 0.329402L7.50647 6.28435L13.1826 0.329402C13.3849 0.124464 13.6558 0.011064 13.9369 0.0136274C14.2181 0.0161907 14.4871 0.134512 14.6859 0.343107C14.8847 0.551702 14.9975 0.833882 15 1.12887C15.0024 1.42386 14.8943 1.70805 14.699 1.92024L8.26465 8.6706C8.06355 8.88151 7.79083 9 7.50647 9C7.22212 9 6.9494 8.88151 6.7483 8.6706L0.31398 1.92024C0.112938 1.70926 5.67201e-07 1.42314 5.80241e-07 1.12482C5.93281e-07 0.826493 0.112939 0.540382 0.31398 0.329402Z" fill="#808080"/>
</svg>
