<svg width="18" height="20" viewBox="0 0 18 20" fill="none" xmlns="http://www.w3.org/2000/svg">
<g id="svg-gobbler - 2023-06-15T171031.235 1" opacity="0.4" clip-path="url(#clip0_807_19875)">
<g id="Group">
<path id="Vector" d="M17.9495 9.79115C17.0573 8.07754 15.7743 6.64026 14.2393 5.63484C12.6577 4.59886 10.8459 4.05127 8.99997 4.05127C7.15402 4.05127 5.34224 4.59886 3.76057 5.63484C2.22555 6.64031 0.942592 8.07754 0.0503921 9.79115C0.0173812 9.85458 0 9.92655 0 9.99982C0 10.0731 0.0173812 10.1451 0.0503921 10.2085C0.942592 11.9221 2.22555 13.3594 3.76057 14.3648C5.34227 15.4008 7.15402 15.9484 8.99997 15.9484C10.8459 15.9484 12.6577 15.4008 14.2393 14.3648C15.7743 13.3594 17.0573 11.9221 17.9495 10.2085C17.9826 10.1451 17.9999 10.0731 17.9999 9.99982C17.9999 9.92655 17.9826 9.85458 17.9495 9.79115ZM13.8584 13.6469C12.392 14.6074 10.712 15.1151 8.99993 15.1151C7.28782 15.1151 5.60777 14.6074 4.14143 13.6469C2.78016 12.7553 1.63256 11.4976 0.811082 9.99978C1.63256 8.50199 2.78016 7.24431 4.14143 6.35267C5.60777 5.39223 7.28782 4.88455 8.99993 4.88455C10.712 4.88455 12.392 5.39223 13.8584 6.35267C15.2197 7.24431 16.3673 8.50194 17.1888 9.99978C16.3673 11.4976 15.2197 12.7553 13.8584 13.6469Z" fill="black"/>
<path id="Vector_2" d="M8.99998 7C7.34576 7 6 8.34576 6 9.99998C6 11.6542 7.34576 13 8.99998 13C10.6542 13 12 11.6542 12 9.99998C12 8.3458 10.6542 7 8.99998 7ZM8.99998 12.3323C7.71397 12.3323 6.66771 11.286 6.66771 9.99998C6.66771 8.71397 7.71397 7.66771 8.99998 7.66771C10.286 7.66771 11.3323 8.71397 11.3323 9.99998C11.3323 11.286 10.286 12.3323 8.99998 12.3323Z" fill="black"/>
</g>
</g>
<defs>
<clipPath id="clip0_807_19875">
<rect width="18" height="20" fill="white"/>
</clipPath>
</defs>
</svg>
