<svg width="13" height="15" viewBox="0 0 13 15" fill="none" xmlns="http://www.w3.org/2000/svg">
<g id="Group 4">
<circle id="Ellipse 2" cx="6.5" cy="7.45801" r="6.5" fill="#F2F0F2"/>
<g id="Group 1">
<mask id="mask0_1067_7770" style="mask-type:alpha" maskUnits="userSpaceOnUse" x="0" y="1" width="13" height="14">
<circle id="Ellipse 1" cx="6.5" cy="8.00012" r="6.5" fill="#FCFCFC"/>
</mask>
<g mask="url(#mask0_1067_7770)">
<g id="Rectangle 1">
<rect x="2.11328" y="13.0374" width="8.9375" height="1.625" fill="#D90026"/>
<rect x="2.11328" y="13.0374" width="8.9375" height="1.625" fill="#D90026"/>
</g>
<g id="Rectangle 2">
<rect x="0.164062" y="9.78735" width="12.8375" height="1.625" fill="#D90026"/>
<rect x="0.164062" y="9.78735" width="12.8375" height="1.625" fill="#D90026"/>
</g>
<g id="Rectangle 3">
<rect x="0.164062" y="6.37518" width="12.8375" height="1.625" fill="#D90026"/>
<rect x="0.164062" y="6.37518" width="12.8375" height="1.625" fill="#D90026"/>
</g>
<g id="Rectangle 4">
<rect x="0.164062" y="3.12514" width="12.8375" height="1.625" fill="#D90026"/>
<rect x="0.164062" y="3.12514" width="12.8375" height="1.625" fill="#D90026"/>
</g>
<rect id="Rectangle 5" y="1.50012" width="6.6625" height="6.5" fill="#0052B5"/>
<path id="Vector 1" d="M5.36094 6.9441L4.87344 7.18785L5.03594 6.70035L4.71094 6.37535H5.19844L5.36094 5.88785L5.60469 6.37535H6.01094L5.68594 6.70035L5.84844 7.18785L5.36094 6.9441Z" fill="#EFEFEF"/>
<path id="Vector 4" d="M3.0875 6.9441L2.6 7.18785L2.7625 6.70035L2.4375 6.37535H2.925L3.0875 5.88785L3.33125 6.37535H3.7375L3.4125 6.70035L3.575 7.18785L3.0875 6.9441Z" fill="#EFEFEF"/>
<path id="Vector 5" d="M0.814062 6.9441L0.326562 7.18785L0.489062 6.70035L0.164062 6.37535H0.651562L0.814062 5.88785L1.05781 6.37535H1.46406L1.13906 6.70035L1.30156 7.18785L0.814062 6.9441Z" fill="#EFEFEF"/>
<path id="Vector 2" d="M5.36094 5.15684L4.87344 5.40059L5.03594 4.91309L4.71094 4.58809H5.19844L5.36094 4.10059L5.60469 4.58809H6.01094L5.68594 4.91309L5.84844 5.40059L5.36094 5.15684Z" fill="#EFEFEF"/>
<path id="Vector 6" d="M5.36094 3.36895L4.87344 3.6127L5.03594 3.1252L4.71094 2.8002H5.19844L5.36094 2.3127L5.60469 2.8002H6.01094L5.68594 3.1252L5.84844 3.6127L5.36094 3.36895Z" fill="#EFEFEF"/>
<path id="Vector 9" d="M5.36094 1.58169L4.87344 1.82544L5.03594 1.33794L4.71094 1.01294H5.19844L5.36094 0.525436L5.60469 1.01294H6.01094L5.68594 1.33794L5.84844 1.82544L5.36094 1.58169Z" fill="#EFEFEF"/>
<path id="Vector 7" d="M3.0875 3.36895L2.6 3.6127L2.7625 3.1252L2.4375 2.8002H2.925L3.0875 2.3127L3.33125 2.8002H3.7375L3.4125 3.1252L3.575 3.6127L3.0875 3.36895Z" fill="#EFEFEF"/>
<path id="Vector 3" d="M3.0875 5.15684L2.6 5.40059L2.7625 4.91309L2.4375 4.58809H2.925L3.0875 4.10059L3.33125 4.58809H3.7375L3.4125 4.91309L3.575 5.40059L3.0875 5.15684Z" fill="#EFEFEF"/>
<path id="Vector 8" d="M0.814062 5.15684L0.326562 5.40059L0.489062 4.91309L0.164062 4.58809H0.651562L0.814062 4.10059L1.05781 4.58809H1.46406L1.13906 4.91309L1.30156 5.40059L0.814062 5.15684Z" fill="#EFEFEF"/>
</g>
</g>
</g>
</svg>
